<?xml version="1.0" encoding="UTF-8"?>
<svg width="171px" height="200px" viewBox="0 0 171 200" version="1.1" xmlns="http://www.w3.org/2000/svg" xmlns:xlink="http://www.w3.org/1999/xlink">
    <!-- Generator: Sketch 53.2 (72643) - https://sketchapp.com -->
    <title>Combined Shape</title>
    <desc>Created with Sketch.</desc>
    <g id="Home" stroke="none" stroke-width="1" fill="none" fill-rule="evenodd">
        <g id="GAB01-00-HP" transform="translate(-268.000000, -250.000000)" fill="#FFFFFF">
            <g id="Intro" transform="translate(0.000000, 0.000000)">
                <g id="Group-3" transform="translate(268.000000, 250.000000)">
                    <g id="Group-27">
                        <g id="Combined-Shape-3" transform="translate(0.000000, 0.000000)">
                            <path d="M52.0449398,19.2381928 C48.5419277,19.1387952 46.4792771,18.2231325 45.5148193,16.1887952 C44.2274699,13.4761446 45.6744578,10.4315663 49.2280723,8.7460241 C50.6744578,8.05987952 52.2190361,7.75445783 53.7648193,7.79060241 L54.0340964,6.20024096 L56.8774699,12.1948193 L54.6015663,10.0755422 C53.2009639,9.88457831 51.5533735,10.1351807 50.1112048,10.8189157 C47.9684337,11.8351807 47.0093976,13.3863855 47.7298795,14.9056627 C48.3346988,16.1803614 49.773253,16.7610843 54.4840964,16.8851807 C58.1208434,16.9875904 60.2057831,17.4604819 61.2606024,19.6845783 C62.7015663,22.7225301 61.336506,25.7291566 57.7292771,27.44 C55.8726506,28.3207229 54.1750602,28.5098795 52.4931325,28.3544578 L52.1913253,30.266506 L49.0654217,23.6749398 L51.4057831,26.0520482 C53.4419277,26.300241 55.3798795,26.029759 56.9142169,25.3020482 C59.0298795,24.2984337 59.8286747,22.69 59.0310843,21.0080723 C58.3106024,19.4893976 56.9443373,19.34 52.0449398,19.2381928 Z M50.2150602,169.774398 L51.6590361,170.512952 L61.573494,175.585843 L59.5740964,179.823193 L59.796988,177.003916 L52.9066265,173.478012 L49.8024096,179.54488 L55.4126506,182.414759 L56.9156627,181.329217 L56.163253,182.799096 L55.2198795,184.643675 L54.289759,186.460542 L54.2921687,184.168976 L48.8590361,181.388855 L45.1975904,188.54488 L45.2126506,188.553916 L46.1921687,190.111747 L44.7831325,189.311145 L42.6427711,188.09488 L41.2319277,187.294277 L43.05,187.337651 L51.2626506,171.288253 L50.2150602,169.774398 Z M153.045904,96.1077711 C153.932651,96.1077711 155.17241,95.8312651 156.512771,95.3487349 C156.411566,91.3258434 155.349518,89.3011446 153.30012,89.3011446 C151.730843,89.3011446 150.566988,90.9210241 150.566988,93.0463253 C150.566988,94.9692169 151.477229,96.1077711 153.045904,96.1077711 Z M153.729639,102.03006 C154.260964,101.751747 154.741687,101.39753 155.121205,100.916205 C155.855542,100.005964 156.133855,99.1963253 156.43747,97.1198193 C154.843494,97.6770482 153.653133,97.9300602 152.48988,97.9300602 C150.034458,97.9300602 148.491687,96.1077711 148.491687,93.2481325 C148.491687,89.8824699 150.566988,87.4288554 153.35012,87.4288554 C156.741084,87.4288554 158.665181,90.2378916 158.665181,95.1981325 C158.665181,98.2595783 157.980843,100.461988 156.488072,102.23247 C155.880843,102.965602 155.146506,103.548133 154.362169,103.927651 C153.198313,104.48488 152.286867,104.636687 150.110964,104.636687 L149.60494,104.636687 L149.60494,102.763795 L149.857952,102.763795 C151.832048,102.763795 152.616386,102.585482 153.729639,102.03006 Z M169.21241,94.7162048 C170.300964,95.678253 170.856988,97.0698193 170.856988,98.8674096 C170.856988,102.183072 168.706386,104.586687 165.720241,104.586687 C165.137711,104.586687 164.556386,104.510181 163.999157,104.358373 C163.113614,104.130663 162.684096,103.927651 161.670843,103.29512 L162.632892,101.550542 C164.024458,102.435482 164.606386,102.661988 165.54253,102.661988 C167.466627,102.661988 168.858193,101.144518 168.858193,99.0186145 C168.858193,97.1710241 168.073855,96.0577711 166.479277,95.551747 C165.54253,95.2487349 164.961205,95.1981325 163.138916,95.1981325 L162.96241,95.1981325 L162.96241,87.5553614 L170.274458,87.5553614 L170.274458,89.4529518 L165.011205,89.4529518 L165.011205,93.4511446 C167.34012,93.5776506 168.225663,93.8565663 169.21241,94.7162048 Z M4.2439759,104.383554 L4.2439759,89.5793373 L-1.09245946e-13,89.5793373 L-1.09245946e-13,87.681747 L6.31927711,87.681747 L6.31927711,104.383554 L4.2439759,104.383554 Z M14.9640964,101.573916 C15.7743373,100.157048 17.0146988,97.4992169 17.6725301,95.8046386 L20.0755422,89.5793373 L13.066506,89.5793373 L13.066506,87.681747 L22.4544578,87.681747 L22.4544578,88.9468072 L19.4183133,96.7401807 C18.9122892,98.031747 18.4827711,99.0937952 18.076747,99.955241 C17.4442169,101.295602 16.8628916,102.309458 15.4448193,104.713072 L13.6990361,103.598012 C14.2815663,102.688976 14.6863855,102.02994 14.9640964,101.573916 Z M55.7790964,73.2527108 C56.7598193,68.5418675 58.8911446,64.5087349 62.0935542,61.3713855 C61.1435542,61.3918675 60.0495783,61.3912651 59.3772892,61.3900602 C58.0778916,61.388253 55.0556024,62.1099398 55.0556024,68.7804217 C55.0556024,70.1822289 55.3543976,71.7063253 55.7790964,73.2527108 Z M131.203193,86.6105422 L130.951386,88.7099398 C130.951386,88.7099398 126.403193,89.9569277 120.795361,91.5099398 L120.796566,91.5454819 C120.836325,92.5159639 121.147771,96.3406627 121.395964,97.2834337 C121.458012,97.5177711 121.515843,97.7551205 121.60259,97.9731928 C122.818855,101.028012 123.030904,101.59006 125.05741,106.208735 C125.468855,107.146084 124.877289,107.885241 124.041747,108.438855 C122.560422,109.420783 121.467048,109.991867 119.992952,110.674398 C120.013434,111.343072 120.490542,112.215964 120.856807,112.931627 C121.017048,113.24488 121.558614,114.126807 121.558614,114.52741 C121.558614,116.035843 119.68994,117.282831 119.429699,117.461747 C119.688133,117.813554 119.938735,118.225602 120.065843,118.873795 C120.139337,119.294277 120.082711,119.820181 119.833916,120.262349 C119.582711,120.70512 119.276084,120.929819 119.114639,121.069578 C118.865241,121.297892 118.886325,121.728012 118.92006,121.950904 C119.148373,123.446084 119.127289,125.396687 117.909217,126.918976 C117.211627,127.770783 116.518855,128.196687 115.165241,128.216566 C113.395964,128.243072 110.414036,127.905723 108.276084,127.596687 L108.236325,141.838253 C106.951386,143.576807 102.943554,145.793675 99.4592169,146.768976 C93.6646386,148.39247 87.2670482,147.758133 87.2670482,147.758133 C91.7025904,144.696687 97.4754819,142.067169 102.480904,141.767771 C99.2393373,140.92259 95.2140361,139.934639 91.9851205,138.732831 C91.5700602,139.141867 88.7345181,141.920181 83.5748795,143.226807 C77.9929518,144.639458 71.8568072,143.75994 71.8568072,143.75994 C71.8568072,143.75994 76.9110241,140.368976 82.4935542,138.954518 C86.5827108,137.918976 89.8086145,138.196687 91.2429518,138.466566 C86.5929518,136.708133 83.7658434,135.520181 80.8031928,133.986446 C80.0507831,134.658133 77.4766867,136.790663 72.9381325,137.714759 C67.5676506,138.808735 61.7628313,137.646084 61.7628313,137.646084 C61.7628313,137.646084 66.7116265,134.603916 72.0827108,133.510542 C75.6845181,132.776807 78.3513855,133.194277 79.855,133.491265 C78.4863253,132.761145 77.1790964,132.023795 75.9309036,131.25753 C75.294759,130.936446 74.6158434,130.678012 73.8965663,130.461747 C70.5333133,129.609337 66.4303012,129.751506 64.0242771,130.071386 C64.201988,131.539458 62.881506,132.902711 60.8706627,133.396687 C58.7411446,133.920181 56.7766867,133.691867 56.2730723,131.64247 C55.7700602,129.593072 57.4043976,128.479217 59.5345181,127.956928 C61.4863253,127.476807 63.2254819,128.037651 63.8068072,129.333434 C65.5531928,128.561747 69.0941566,128.214759 71.4592169,128.250904 C69.6062048,126.891867 67.4200602,125.471988 65.7399398,123.881627 C64.8562048,124.311145 62.3303012,125.344277 58.8296988,125.059337 C54.4513855,124.701506 50.9098193,122.204518 50.9098193,122.204518 C50.9098193,122.204518 54.7483735,121.067771 59.1266867,121.424398 C61.6001807,121.625602 63.481506,122.320783 64.6718675,122.888855 C62.6748795,120.846687 61.001988,118.975 59.5483735,117.002711 C58.6477711,117.264759 56.6098193,117.709337 53.9393373,117.093072 C50.3718675,116.270783 47.8254819,113.868373 47.8254819,113.868373 C47.8254819,113.868373 51.055,113.309337 54.6230723,114.132229 C56.3718675,114.535843 58.0188554,115.323193 58.9423494,115.891867 C58.031506,114.543072 57.1327108,113.108133 56.2754819,111.393675 C55.0857229,110.486446 53.3742771,108.764157 52.3007831,105.915361 C51.1851205,102.95512 50.9272892,99.7768072 51.058012,97.5298193 C52.7387349,99.028012 54.4724699,101.449096 55.8345181,104.34247 C56.9604217,106.735843 57.0742771,108.547892 57.1953614,110.911145 C58.691747,113.073795 60.5194578,115.379217 62.0646386,117.14006 C61.9068072,115.561747 61.7212651,113.65994 62.0013855,112.256325 C60.9622289,111.94247 60.1790964,110.747289 60.1911446,109.256928 C60.205,107.532229 61.2568072,106.143072 62.5411446,106.153313 C63.8248795,106.162952 64.855,107.569578 64.8411446,109.293675 C64.828494,110.875 63.9369277,112.140663 62.8001807,112.336446 C62.9827108,114.456325 63.3923494,116.984639 64.3604217,119.534036 C66.3272892,121.479819 68.3586145,123.196084 70.4983735,124.728012 C69.8634337,123.708133 68.6586145,121.696687 68.4610241,118.566566 C68.1851205,114.181627 69.858012,109.69488 69.858012,109.69488 C69.858012,109.69488 71.8236747,113.953313 72.1007831,118.337048 C72.3321084,122.012349 71.3881325,124.385241 71.0489759,125.129819 C73.0875301,126.723193 76.5031928,128.860542 79.5995783,130.480422 C78.9543976,129.344277 77.6809036,126.923193 77.4158434,123.353313 C77.0471687,118.400301 78.6025904,113.326807 78.6025904,113.326807 C78.6025904,113.326807 80.6369277,118.132831 81.0056024,123.085241 C81.301988,127.073795 80.5260843,129.818373 80.1736747,130.783434 C82.4459639,132.013554 85.9001807,133.712349 89.0098193,134.959337 C88.178494,133.681627 86.858012,131.200301 86.3845181,127.67741 C85.6760843,122.406325 87.1586145,116.865361 87.1586145,116.865361 C87.1586145,116.865361 89.7628313,121.856928 90.4712651,127.128012 C91.0074096,131.116566 90.3056024,134.114759 89.9321084,135.340663 C91.6923494,136.075602 96.1556024,137.571386 99.4309036,138.438855 C98.628494,137.478614 96.908012,134.987048 96.2610241,131.093675 C95.4272892,126.078012 96.9309036,120.784036 96.9309036,120.784036 C96.9309036,120.784036 99.7863253,125.517169 100.620663,130.533434 C101.314639,134.709337 100.611024,137.768373 100.281506,138.675 C101.227892,138.929217 105.814639,140.00512 105.814639,140.00512 L105.741145,126.052108 L105.732108,124.434639 C108.578494,125.224398 112.58994,125.823193 115.248373,125.834036 C115.624277,125.835241 115.859819,125.659337 116.07488,125.403916 C116.626687,124.745482 116.794759,123.550301 116.517048,122.032831 C116.455,121.694277 116.443554,121.423795 116.490542,121.049699 C116.530301,120.683434 116.686928,120.246687 116.929699,119.914759 C117.169458,119.581627 117.643554,119.199699 117.664639,119.181627 C117.43994,118.232831 116.103193,116.921386 115.300181,116.520783 C116.229096,116.441867 118.550181,115.205723 119.008012,114.447289 C118.015241,112.875 117.417048,111.493072 117.576687,109.111747 C119.135723,108.588855 121.358012,107.42741 122.561024,106.526807 C121.77006,104.75994 119.50741,99.135241 119.411627,98.8539157 C119.314036,98.5665663 119.230904,98.2858434 119.155602,98.001506 C118.858012,96.8671687 118.488133,92.9900602 118.45259,92.1731928 L118.451386,92.1593373 C110.329699,94.4135542 101.07488,97.0111446 100.108012,97.4093373 C99.8128313,99.6105422 95.3935542,109.862349 89.7833133,112.755723 L89.4031928,112.315964 C93.6953614,107.215964 96.8164458,100.600301 97.6893373,95.1581325 L127.815241,86.7454819 L106.079699,70.9406627 L94.8959639,76.988253 L93.7206627,75.8358434 L98.7543976,64.5581325 C97.0875301,63.0069277 87.4194578,57.6406627 78.8971687,57.6406627 C68.4863253,57.6406627 57.7995783,64.3948795 57.7995783,79.4816265 C57.7995783,86.7960843 61.4309036,91.4731928 64.4423494,93.9912651 C69.0977711,97.8840361 74.9333133,99.1243976 79.118253,98.8099398 L79.2574096,99.4105422 C74.4104217,101.689458 67.4333133,99.9430723 62.7574096,96.0334337 C59.3568072,93.1894578 55.3429518,88.0990964 55.1694578,80.0039157 C53.5965663,76.078012 52.3037952,71.9310241 52.3037952,68.7804217 C52.3037952,62.4304217 54.9477711,58.6388554 59.3772892,58.6388554 C63.4670482,58.6569277 64.9429518,58.5472892 65.9748795,57.5195783 C66.5670482,56.9304217 66.855,55.9978916 66.855,54.6677711 C66.855,52.4930723 67.8218675,51.3527108 68.6327108,50.7786145 C71.0965663,49.0370482 75.4989759,50.514759 75.4989759,50.514759 L74.5833133,53.1093373 C74.5833133,53.1093373 71.2459639,52.298494 70.2200602,53.0268072 C70.068253,53.1346386 69.6068072,53.4629518 69.6068072,54.6677711 C69.6068072,55.4304217 69.4471687,56.0629518 69.2935542,56.6990964 C72.251988,55.485241 75.4911446,54.7966867 78.8971687,54.7966867 C85.6610241,54.7966867 95.958012,58.1575301 102.196566,63.748494 L98.1363253,72.864759 L106.434518,68.0599398 L131.203193,86.6105422 Z M25.6448193,58.6392771 L9.27795181,50.9736145 L7.80204819,52.0724096 L8.48939759,50.6043373 L9.5339759,48.3748193 L10.2213253,46.9061446 L10.3219277,48.7440964 L26.6887952,56.409759 L28.1653012,55.3109639 L27.4773494,56.7796386 L26.4333735,59.0085542 L25.7454217,60.4766265 L25.6448193,58.6392771 Z M32.9934337,45.7448193 L19.8127108,33.0628916 L18.061506,33.6273494 L19.1856024,32.4592771 L21.2042771,30.3610843 L38.8922289,33.7568675 C39.0410241,33.7749398 39.2331928,33.8345783 39.4259639,33.8948193 C39.6151205,33.9719277 39.7048795,34.0122892 39.8837952,34.0857831 L28.9500602,23.5659036 L26.9910241,24.3472289 L28.3229518,22.9622892 L30.0295783,21.1887952 L31.1536747,20.0207229 L30.6572892,21.7918072 L44.4368072,35.0508434 L42.6675301,36.8893976 L24.5958434,33.3737349 C24.4253614,33.3345783 24.1476506,33.2761446 23.8277711,33.1761446 C23.5928313,33.1177108 23.4440361,33.0990361 23.3362048,33.036988 L34.5181325,43.7960241 L36.3904217,42.8243373 L35.2024699,44.3345783 L33.6801807,46.2689157 L32.6777711,47.5424096 L32.9934337,45.7448193 Z M113.867229,27.4766265 L111.640723,26.4266265 L109.631687,25.4796386 L112.011807,25.6392771 L119.282892,10.2157831 L114.234096,7.83566265 L112.324458,9.55795181 L114.62506,5.09951807 L114.859398,6.03987952 L127.573253,12.033253 L128.447349,11.6151807 L126.472048,16.2272289 L126.585904,13.6585542 L121.509398,11.2651807 L114.238313,26.6892771 L115.876867,28.4236145 L113.867229,27.4766265 Z M67.0904819,4.62771084 L66.4374699,7.11445783 L65.9181928,2.1246988 L66.6290361,2.78253012 L80.5483133,0.828313253 L81.0507229,0 L81.9260241,4.93975904 L80.6127711,2.72891566 L75.0555422,3.50963855 L77.4266265,20.3957831 L79.7477108,20.9487952 L77.5477108,21.2572289 L75.109759,21.6 L72.9103614,21.9090361 L74.9886747,20.7379518 L72.6181928,3.85180723 L67.0904819,4.62771084 Z M159.347711,49.1648193 L156.979639,44.11 L154.410964,44.2178313 L159.027229,42.2533735 L158.607349,43.1268675 L164.57,55.8545783 L165.509759,56.0913253 L161.045904,58.3810843 L162.77241,56.4756627 L160.391687,51.3937349 L144.950723,58.6274699 L145.10494,61.0087952 L144.162169,58.996747 L143.118193,56.7678313 L142.176024,54.7563855 L143.906145,56.3985542 L159.347711,49.1648193 Z M128.227108,35.221747 C128.028313,33.0976506 128.69759,31.5103012 130.53494,29.6970482 L139.187952,21.1560843 L138.668675,19.3904217 L139.807831,20.5446386 L141.536747,22.2964458 L142.675301,23.4500602 L140.91747,22.908494 L132.798193,30.921747 C131.045783,32.6506627 130.680723,33.2639157 130.607831,34.6856024 C130.513253,36.1711446 131.098193,37.6187349 132.3,38.8362048 C133.50241,40.0542771 134.941566,40.6578916 136.427711,40.5825904 C137.850602,40.5283735 138.468675,40.171747 140.221084,38.4428313 L148.340361,30.4289759 L147.821084,28.6639157 L148.959639,29.8175301 L150.689157,31.5699398 L151.827711,32.7235542 L150.069277,32.1813855 L141.416265,40.721747 C139.535542,42.5771687 138.003012,43.2036747 135.881928,42.9777711 C133.993976,42.774759 132.258434,41.9139157 130.761446,40.3970482 C129.264458,38.8801807 128.405422,37.1127108 128.227108,35.221747 Z M95.4843373,21.5978313 L93.0463855,21.2556627 L91.4415663,21.0303614 L93.1674699,20.3936145 L95.6795181,2.4960241 L94.1951807,1.4086747 L95.8006024,1.6339759 L98.2385542,1.97614458 L99.8439759,2.20144578 L98.1174699,2.83819277 L95.6054217,20.7357831 L97.0903614,21.8231325 L95.4843373,21.5978313 Z M11.3190361,147.012289 C13.2515663,147.83759 15.9045783,147.921325 17.9340964,147.176747 C22.0768675,145.65747 24.0401205,141.42012 22.5003614,137.22012 L21.2081928,133.697229 L6.49614458,139.093012 L7.78771084,142.615904 C8.68710843,145.067108 9.6726506,146.273133 11.3190361,147.012289 Z M24.5792771,136.873735 C26.5738554,142.312892 24.149759,147.647229 18.7943373,149.610482 C16.3708434,150.499639 13.6160241,150.486988 11.1949398,149.552048 C8.62987952,148.574337 7.15578313,146.908675 5.96662651,143.667108 L3.70337349,137.494819 L3.04192771,135.691205 L4.52084337,137.195422 L21.4877108,130.973133 L21.6437349,128.869518 L22.3051807,130.673133 L24.5792771,136.873735 Z M30.6681928,150.123193 L31.6736145,151.395482 L38.5760241,160.135843 L34.9940964,163.155723 L36.3706024,160.685843 L31.5736145,154.611145 L26.3904819,158.704518 L29.8675904,163.106928 L31.8838554,162.705723 L27.3603614,166.27741 L28.2326506,164.378614 L24.7651807,159.988855 L19.2760241,164.323795 L24.066988,170.39006 L27.4344578,169.470783 L23.1953012,172.628012 L16.1248193,163.676205 L15.1193976,162.403313 L16.8079518,163.136446 L30.9904819,151.935241 L30.6681928,150.123193 Z M164.813193,136.691928 L162.206566,134.370241 L167.165,136.202169 L163.51741,147.010602 L162.998735,148.547952 L162.692108,146.732289 L145.569217,140.953373 L144.225843,142.211807 L144.744518,140.67506 L148.305361,130.123253 L152.789699,131.478675 L149.968614,131.671446 L147.493916,139.005181 L153.751145,141.117229 L155.54512,135.801566 L154.108976,134.331084 L159.570422,136.174458 L157.502952,136.478675 L155.714398,141.779277 L162.341506,144.016024 L164.813193,136.691928 Z M126.792289,165.538133 L125.857952,167.123675 L135.779639,183.471265 L133.597711,184.795361 L117.030843,176.765241 C116.876627,176.683313 116.623012,176.555602 116.339277,176.377289 C116.127831,176.259819 115.988072,176.203795 115.90012,176.116446 L124.013373,189.484518 L126.116386,189.391145 L120.762169,192.108614 L121.810964,190.601988 L112.486867,175.238735 L110.649518,175.335723 L112.03506,174.494157 L114.525422,172.982711 L130.751928,180.798976 C130.891084,180.855 131.060964,180.962229 131.231446,181.069458 C131.395301,181.192349 131.471807,181.255 131.626024,181.371265 L123.753735,168.400783 L121.659759,168.653193 L123.30253,167.656807 L125.406747,166.379096 L126.792289,165.538133 Z M153.614759,160.011145 L151.684036,157.237651 L155.683434,160.210542 C155.141265,162.500301 154.535241,164.069578 153.389458,165.611747 C149.825602,170.406325 143.85512,171.243072 138.964157,167.60753 C134.313554,164.151506 133.356928,158.091265 136.741265,153.538253 C138.085241,151.730422 139.868373,150.437651 141.841265,149.846687 L145.600301,152.640663 L142.815964,151.791265 C141.356325,152.255723 139.686446,153.349699 138.512952,154.928614 C136.006325,158.301506 136.799096,162.669578 140.437048,165.373795 C144.437048,168.346687 148.87259,167.864759 151.647892,164.131024 C152.571988,162.887048 153.229217,161.482831 153.614759,160.011145 Z M95.7816867,190.836988 L102.132892,189.679157 L97.3045783,181.267108 L95.7816867,190.836988 Z M98.0696386,177.939398 L108.500964,195.880964 L110.069036,196.226145 L105.029277,197.598434 L106.06241,196.618916 L103.304578,191.753855 L95.4063855,193.194217 L94.5359036,198.667108 L96.0359036,199.29241 L90.6551807,199.780964 L92.0437349,198.883976 L95.3666265,179.204458 L93.5804819,178.75747 L95.4708434,178.413494 L95.4859036,178.497229 L95.5009639,178.40747 L98.0696386,177.939398 Z M78.7812651,184.892349 C78.9704217,183.645964 78.7499398,182.701386 78.1228313,182.029096 C77.6011446,181.464639 77.1095783,181.298976 75.3589759,181.033313 L72.1830723,180.551386 L71.1065663,187.644157 L74.2824699,188.126687 C76.8637952,188.518855 78.3981325,187.414639 78.7812651,184.892349 Z M76.0258434,179.039337 C78.4005422,179.399578 79.4734337,179.927289 80.4354819,181.195964 C81.2451205,182.260422 81.6228313,183.775482 81.3933133,185.288735 C80.9390964,188.282108 78.3601807,190.269458 74.7523494,190.200181 L76.504759,191.28753 L79.6607831,198.611627 L81.215,199.867048 L79.1957229,199.561024 C77.7716265,199.344157 76.9210241,198.547771 76.3433133,197.153795 L73.4071687,190.088735 L70.7957229,189.692952 L69.6409036,197.301386 L71.0505422,198.477892 L65.4625904,197.329096 L67.2264458,196.80259 L69.9300602,178.994157 L68.4565663,177.890542 L70.0601807,178.133313 L76.0258434,179.039337 Z" id="Combined-Shape"></path>
                        </g>
                    </g>
                </g>
            </g>
        </g>
    </g>
</svg>